inDegrees=yes
name=ik_S57_A11_T01
DataType=double
version=3
OpenSimVersion=4.3-2021-08-27-4bc7ad9
endheader
time	pelvis_tilt	pelvis_list	pelvis_rotation	pelvis_tx	pelvis_ty	pelvis_tz	hip_flexion_r	hip_adduction_r	hip_rotation_r	knee_angle_r	knee_angle_r_beta	ankle_angle_r	subtalar_angle_r	mtp_angle_r	hip_flexion_l	hip_adduction_l	hip_rotation_l	knee_angle_l	knee_angle_l_beta	ankle_angle_l	subtalar_angle_l	mtp_angle_l	lumbar_extension	lumbar_bending	lumbar_rotation	arm_flex_r	arm_add_r	arm_rot_r	elbow_flex_r	pro_sup_r	wrist_flex_r	wrist_dev_r	arm_flex_l	arm_add_l	arm_rot_l	elbow_flex_l	pro_sup_l	wrist_flex_l	wrist_dev_l
12.85999999999981	0.03105782861963447	1.303502664326644	33.43824875380138	0	0.9399999999999999	0	38.49544859892498	-9.90505303873374	-9.6666589390572	45.07790224260257	0.7867578140255505	0	0	0	38.49544859892498	-9.90505303873374	-9.6666589390572	45.07790224260257	0.7867578140255505	0	0	0	0.873969427151123	1.150341201385915	13.0542974128176	19.5411103190611	-0.1561282918546522	-8.799402397168953	49.10636192902348	103.7604621519334	0	0	0.3374718298660334	0.191497625028183	-2.659266518309141	4.634016323067901	97.66093940876284	0	0
12.87999999999981	0.0321964380917576	1.305502364733961	33.41901440741453	0	0.9399999999999999	0	38.51171023648677	-9.905600195637259	-9.668159953714083	45.0957064592207	0.7870685562262751	0	0	0	38.51171023648677	-9.905600195637259	-9.668159953714083	45.0957064592207	0.7870685562262751	0	0	0	0.8750622962149697	1.152270256467396	13.06834997596748	19.53699117302443	-0.1592201043254947	-8.796487967206062	49.12157137554226	103.7488657474365	0	0	0.3320602957026991	0.1848047687249205	-2.665598904494722	4.577417467892062	98.03449301954895	0	0
12.89999999999981	-0.3521126743623517	1.652715278606461	32.21739662648314	0	0.9399999999999999	0	38.55856813203764	-9.907257796885093	-9.67242721970872	45.15868897013694	0.7881678084129369	0	0	0	38.55856813203764	-9.907257796885093	-9.67242721970872	45.15868897013694	0.7881678084129369	0	0	0	0.7621999907483296	1.636756577191227	12.28491356078579	19.55356516509457	-0.4281252624278947	-6.563970251994644	49.1237545350051	103.7296234778977	0	0	0.2592273668817747	1.167443564887631	-4.22279730181342	4.600469491759991	97.90008174045262	0	0
12.91999999999981	-0.4279983616806527	1.73530626204149	31.91637063299304	0	0.9399999999999999	0	38.56015461477945	-9.907336951587132	-9.672606594056365	45.16033859677527	0.7881965998292043	0	0	0	38.56015461477945	-9.907336951587132	-9.672606594056365	45.16033859677527	0.7881965998292043	0	0	0	0.7449720953730438	1.743370164434296	12.15093298584224	19.53325118580438	-0.4690030906515963	-6.091645230705947	49.12110517036665	103.7768951744824	0	0	0.1419037889487562	1.355560580092234	-4.261460717429062	4.514867227565744	98.13468790473142	0	0
12.93999999999981	-0.4724629275368348	1.710937485174066	31.56258222212973	0	0.9399999999999999	0	38.71146357058134	-9.912340637756538	-9.685909145562313	45.36628808171095	0.7917910964341184	0	0	0	38.71146357058134	-9.912340637756538	-9.685909145562313	45.36628808171095	0.7917910964341184	0	0	0	0.6875563793079261	1.753200169692401	12.31492512538609	19.71140367293287	-0.9177043716177142	-5.326689817529086	32.96012060643571	100.1711713974964	0	0	0.1235226075298374	1.357592111501541	-4.141668502349376	4.363371865256019	98.59736909633187	0	0
12.95999999999981	-0.4684184575677716	1.707848351578668	31.39434007324586	0	0.9399999999999999	0	38.71489767459254	-9.912504802530083	-9.686287959574653	45.369900584447	0.7918541465010996	0	0	0	38.71489767459254	-9.912504802530083	-9.686287959574653	45.369900584447	0.7918541465010996	0	0	0	0.6838195000051637	1.761532097310478	12.48539971587048	19.69061169434219	-0.8649517554976331	-4.818489172624981	22.74480879921283	98.85134280483837	0	0	0.01486861726187918	1.345541531911805	-3.816092234254481	4.274907571342967	98.81556843058956	0	0
12.97999999999981	-0.4845216017478321	1.684277359163355	30.40113703696849	0	0.9399999999999999	0	38.81289714921945	-9.915681100024432	-9.694792294317352	45.5041874440086	0.7941978943426129	0	0	0	38.81289714921945	-9.915681100024432	-9.694792294317352	45.5041874440086	0.7941978943426129	0	0	0	0.6421091247156951	1.782612169201733	13.41018151273111	9.716064077893385	-1.427852460215951	-11.36564245765478	28.93841099778232	104.1980914671428	0	0	-0.1800881285048903	1.312384019759987	-3.139009284415637	4.515113591541724	98.28409408983875	0	0
12.99999999999981	-0.4857883052492927	1.681571587348407	30.35650492191563	0	0.9399999999999999	0	38.81631432875457	-9.915842497339423	-9.695167200499499	45.50775325684808	0.7942601295171718	0	0	0	38.81631432875457	-9.915842497339423	-9.695167200499499	45.50775325684808	0.7942601295171718	0	0	0	0.6384641906548826	1.783371233310818	13.45877354238377	8.332582853409376	-1.535121120324125	-11.1756211006249	25.91888156887097	103.568795691891	0	0	-0.2882783535459153	1.266986120462962	-2.809371438780858	4.721305654936472	97.99307501088353	0	0
13.01999999999981	-0.4836673044624694	1.648621264491652	30.4008369669941	0	0.9399999999999999	0	38.81991130349752	-9.916012276118893	-9.695561755410466	45.51150467814176	0.7943256041703759	0	0	0	38.81991130349752	-9.916012276118893	-9.695561755410466	45.51150467814176	0.7943256041703759	0	0	0	0.6207813753612256	1.756990799533099	13.57717273599382	7.030147000062995	-1.581501936967162	-11.18097051227178	23.28735157354584	102.8878932735459	0	0	-0.3650415040784971	1.185581024038872	-2.38299228197975	4.668201674008732	98.33274499250909	0	0
13.03999999999981	-0.4721848181842328	1.657349084859679	30.29291378869693	0	0.9399999999999999	0	38.8223521288354	-9.91612593277145	-9.695827173810089	45.51407954482139	0.7943705440717352	0	0	0	38.8223521288354	-9.91612593277145	-9.695827173810089	45.51407954482139	0.7943705440717352	0	0	0	0.6323067584945626	1.763096629213746	13.69527398447071	6.977054275945779	-1.522021986606099	-11.07518586205848	19.64136125325086	102.3112944748471	0	0	-0.5133204520548068	1.181858995030304	-2.15841019372375	4.677484333856242	98.39116973555585	0	0
13.05999999999981	-0.6294285182215152	1.74372592309225	29.81893841237715	0	0.9399999999999999	0	38.84414731784582	-9.916833569620531	-9.697720524079783	45.54372805498964	0.7948880081924822	0	0	0	38.84414731784582	-9.916833569620531	-9.697720524079783	45.54372805498964	0.7948880081924822	0	0	0	0.5443247268098942	1.910322787073446	13.42745161342233	4.884044930916047	-1.886057302549224	-11.58429740128595	18.48638195340753	102.6737019125038	0	0	-0.5236187729113592	1.51594888247146	-2.672909552779888	4.550363761979829	98.49471214338826	0	0
13.07999999999981	-0.7043542452931432	1.801262188057028	29.44835425001503	0	0.9399999999999999	0	38.84706390301793	-9.916969671683814	-9.69803835611903	45.54678331106084	0.7949413324704162	0	0	0	38.84706390301793	-9.916969671683814	-9.69803835611903	45.54678331106084	0.7949413324704162	0	0	0	0.5115825553533732	1.989447930511609	13.40178439775204	4.940746266606564	-1.939809597128443	-11.10875143704744	15.24737853388668	102.1483434621676	0	0	-0.5747281777068727	1.701562897516737	-2.882018051334364	4.607872247733965	98.55436715448703	0	0
13.09999999999981	-0.6935992428340061	1.861918963562964	29.19114299795022	0	0.9399999999999999	0	38.85011929941851	-9.917112855270005	-9.69837229774825	45.54996888165977	0.7949969311659223	0	0	0	38.85011929941851	-9.917112855270005	-9.69837229774825	45.54996888165977	0.7949969311659223	0	0	0	0.5491341670803951	2.037843397273538	13.46510576743327	3.819620717550436	-2.009339620400342	-11.76993879415121	13.39978852280227	102.5367297497442	0	0	-0.7376512951218195	1.75627660273406	-2.88816388897194	4.675023722127876	98.37765971389882	0	0
13.11999999999981	-0.6466979794005998	1.951860772066853	28.7867134446937	0	0.9399999999999999	0	38.85362176540886	-9.917276801497847	-9.698754895410859	45.55362063268467	0.7950606662447699	0	0	0	38.85362176540886	-9.917276801497847	-9.698754895410859	45.55362063268467	0.7950606662447699	0	0	0	0.6305419183034935	2.097522319128353	13.54407466688421	1.643817394600465	-2.084075941906725	-12.7782042235043	12.81478171609655	103.1095649180489	0	0	-0.9232036798504039	1.829800726274432	-3.198616877441325	4.651002997018406	98.43044971838087	0	0
